<svg id="Layer_1" xmlns="http://www.w3.org/2000/svg" xmlns:xlink="http://www.w3.org/1999/xlink" viewBox="0 0 512 512" style="enable-background:new 0 0 512 512"><style>.st0{fill:#ee4036}.st1{fill:#fff}</style><path class="st0" d="M487 261.2c-39.1-24.4-44.6-54.7-16.5-90.5 18.7-23.8 18.7-23.8 2.3-49.5-6.8-10.5-11.8-25.7-21.5-29.9-9.5-4.1-23.9 3-36.1 5.4-34.3 6.9-61.8-12.3-66.8-46.7-1.8-12.4.3-28.4-6.7-36-7.1-7.7-23.2-7.3-35.4-10.1-30-6.8-31.4-7.5-46.4 19.9-18.3 33.4-58.3 42.8-89.3 15.7-23.4-20.4-24.4-19.4-50.3-2.8-10.6 6.8-25.9 11.7-30 21.3-4 9.5 3.3 23.8 5.8 36 7 34.3-12.1 61.5-46.9 66.5C11.9 166 11.9 166 3.8 202.2-3 233-3 233 23.9 250c35.7 22.6 41.2 54.5 15.2 88-19.5 25.1-19.5 25.1-2.7 51.5 20 31.4 20 31.4 56.5 23.9 35.1-7.3 62.2 11.9 67.3 47.6 5.3 36.9 5.3 36.9 41.7 45 30.1 6.7 30.1 6.7 46.7-19.5 23.7-37.4 54.8-42.7 90-15.3 23.9 18.6 24 18.7 49.4 2.4 10.5-6.8 25.7-11.7 29.9-21.4 4.1-9.5-3.1-23.8-5.3-36.1-.6-3.3-1.2-6.7-1.4-10-1.9-24.8 12.7-48.2 36.6-54.1 15.7-3.9 32.3-4 48.5-5.8 5.3-23.6 10.5-47.2 15.8-70.8C503.7 270.7 495.2 266.3 487 261.2z"/><image style="overflow:visible" width="114" height="225" xlink:href="4A7B073147CB81FA.png" transform="matrix(1 0 0 1 271 132)"/><path class="st1" d="M202.9 132.2v144.2c0 7.7-.6 14.2-1.8 19.4-1.2 5.2-3.1 9.5-5.5 12.7-2.5 3.2-5.6 5.5-9.3 6.9-3.8 1.4-8.1 2.1-13.2 2.1-3.6.0-6.7-.3-9.2-.8-2.6-.6-4.7-.8-6.5-.8-3.4.0-6 .8-7.9 2.5-1.9 1.6-3 3.8-3.2 6.5l-2.8 30.4c6.2 1.4 12.1 2.5 17.8 3.1 5.7.6 11.5.9 17.3.9 12.9.0 24.2-2 33.7-6.1 9.6-4.1 17.5-9.8 23.8-17.1s11-16.2 14.2-26.4c3.1-10.3 4.7-21.7 4.7-34.2V132.2H202.9z"/></svg>